:FULLY-SPECIFIED
:FORCE-ALL-JOINTS-BE-3DOF
:DEGREES
374
root 6.21098 16.1852 -16.3539 7.87774 -6.35842 -1.05483
lfemur -12.6362 9.20252 -3.07036
ltibia 52.0433 0 0
lfoot 2.60564 18.5059 0
ltoes 6.50843 0 0
rfemur -39.7086 -12.2903 17.4591
rtibia 48.8976 0 0
rfoot -4.31947 -4.71908 0
rtoes -5.9295 0 0
lowerback 1.54305 0.109438 0.934174
upperback 1.94852 0.190072 0.373469
thorax 1.23379 0.0848291 -0.254352
lowerneck -6.6916 -2.7282 2.71131
upperneck 1.5359 -3.93776 2.82283
head 1.9371 -1.86908 0.280981
lclavicle -2.77626e-14 1.66832e-14 0
lhumerus -45.9945 -25.399 102.96
lradius 53.2799 0 0
lwrist 16.8923 0 0
lhand -7.14361 6.47843 0
lfingers 7.12502 0 0
lthumb 18.7159 35.3566 0
rclavicle -2.77626e-14 1.66832e-14 0
rhumerus -38.237 8.36506 -88.2983
rradius 76.6945 0 0
rwrist 7.43147 0 0
rhand -43.8538 -32.9412 0
rfingers 7.12502 0 0
rthumb -16.6733 -782.267 0
375
root 6.14047 16.1766 -16.2228 7.87406 -7.21739 -1.0821
lfemur -12.991 9.26677 -3.0185
ltibia 52.132 0 0
lfoot 2.07562 18.2701 0
ltoes 6.13994 0 0
rfemur -39.5573 -11.9509 17.1477
rtibia 48.7838 0 0
rfoot -4.11229 -4.60759 0
rtoes -6.11051 0 0
lowerback 1.65709 0.170718 0.994467
upperback 1.95591 0.274941 0.341433
thorax 1.18136 0.127301 -0.325178
lowerneck -6.67809 -2.53971 2.88922
upperneck 1.57882 -3.69673 2.69281
head 1.95082 -1.74952 0.218628
lclavicle -2.78043e-14 1.65863e-14 0
lhumerus -45.9272 -25.3061 102.744
lradius 53.1586 0 0
lwrist 16.8189 0 0
lhand -7.53533 6.3159 0
lfingers 7.12502 0 0
lthumb 18.339 35.2263 0
rclavicle -2.78043e-14 1.65863e-14 0
rhumerus -38.4599 8.14233 -88.2816
rradius 76.4623 0 0
rwrist 7.50357 0 0
rhand -43.6782 -32.7376 0
rfingers 7.12502 0 0
rthumb -16.504 -782.082 0
376
root 6.06931 16.168 -16.0902 7.86937 -8.08153 -1.11051
lfemur -13.3494 9.33088 -2.96678
ltibia 52.2211 0 0
lfoot 1.53992 18.0318 0
ltoes 5.76722 0 0
rfemur -39.4053 -11.6078 16.833
rtibia 48.6695 0 0
rfoot -3.90262 -4.49488 0
rtoes -6.29364 0 0
lowerback 1.77224 0.23254 1.05526
upperback 1.96331 0.360559 0.309109
thorax 1.12835 0.170148 -0.396612
lowerneck -6.66452 -2.34971 3.06866
upperneck 1.6223 -3.45376 2.56159
head 1.96473 -1.62899 0.155699
lclavicle -2.78392e-14 1.64848e-14 0
lhumerus -45.8593 -25.2127 102.528
lradius 53.0363 0 0
lwrist 16.7446 0 0
lhand -7.93014 6.15173 0
lfingers 7.12502 0 0
lthumb 17.9591 35.0946 0
rclavicle -2.78392e-14 1.64848e-14 0
rhumerus -38.6847 7.91855 -88.2648
rradius 76.2286 0 0
rwrist 7.57665 0 0
rhand -43.4994 -32.5306 0
rfingers 7.12502 0 0
rthumb -16.3316 -781.893 0
377
root 5.99755 16.1592 -15.9562 7.86351 -8.94949 -1.14023
lfemur -13.7111 9.39466 -2.91533
ltibia 52.3104 0 0
lfoot 0.999006 17.7912 0
ltoes 5.39077 0 0
rfemur -39.2529 -11.2613 16.5154
rtibia 48.5552 0 0
rfoot -3.69063 -4.38099 0
rtoes -6.47873 0 0
lowerback 1.88842 0.294834 1.11646
upperback 1.97071 0.44683 0.276538
thorax 1.07481 0.213324 -0.468565
lowerneck -6.6509 -2.15843 3.24939
upperneck 1.66632 -3.20916 2.4293
head 1.97881 -1.50766 0.0922621
lclavicle -2.78677e-14 1.63787e-14 0
lhumerus -45.7911 -25.1188 102.31
lradius 52.913 0 0
lwrist 16.6694 0 0
lhand -8.32754 5.98608 0
lfingers 7.12502 0 0
lthumb 17.5768 34.9616 0
rclavicle -2.78677e-14 1.63787e-14 0
rhumerus -38.9113 7.6941 -88.2479
rradius 75.9935 0 0
rwrist 7.65072 0 0
rhand -43.3173 -32.3204 0
rfingers 7.12502 0 0
rthumb -16.1561 -781.701 0
